<svg xmlns="http://www.w3.org/2000/svg" viewBox="0 0 98.83 94.68"><defs><style>.cls-1{fill:#d2e7fa}.cls-2{fill:#1d1d1b}</style></defs><path class="cls-1" d="M80.43 82.15l-.97-.01-.98-.01-.99-.01-1.02-.03-1.02-.02-1.03-.03-1.05-.04-1.06-.04-1.06-.05-1.08-.05-1.09-.05-1.09-.06-1.1-.06-1.11-.07-2.24-.14-2.24-.16-2.27-.17-2.27-.18-2.27-.19-2.27-.21-1.12-.1-1.15-.12-1.18-.13-1.2-.14-1.22-.14-1.25-.16-1.26-.17-1.28-.17-1.29-.19-1.3-.19-1.31-.2-1.33-.21-1.32-.21-1.34-.23-1.33-.23-1.34-.25-1.01-.6-1.02-.61-1.02-.63-1.01-.62-1.01-.64-1.01-.65-1-.65-1-.65-.99-.66-.98-.66-.97-.67-.96-.67-.95-.67-.93-.67-.93-.68-.9-.67-.89-.67-.88-.67-.86-.67-.83-.66-.82-.67-.79-.66-.78-.65-.75-.64-.72-.65-.71-.63-.67-.62-.64-.62-.62-.61-.59-.6-.56-.58-.52-.58.71-1.23.74-1.28.78-1.33.81-1.36.84-1.39.87-1.41.88-1.44.9-1.45.92-1.45.92-1.47.93-1.45.93-1.46.93-1.44.92-1.43.92-1.39.9-1.37.24-.36.23-.35.23-.36.23-.34.23-.35.23-.34.23-.34.22-.34.58-.86.56-.84.55-.81.53-.78.52-.75.5-.73.48-.69.46-.67.44-.62.41-.59.39-.54.37-.51.34-.46.31-.42.29-.37.25-.33.19-.23.54-.65.39-.47.46-.54.53-.63.6-.69.66-.76.72-.8.77-.87.81-.89.85-.93.89-.96.92-.98.96-.99.97-.99 1-.99 1.01-.98 1.02-.96 1.02-.94 1.02-.91 1.03-.87 1.01-.82 1-.77.98-.71.96-.64.93-.57.9-.49.87-.39.82-.3.78-.2.43-.07.44-.04.44-.02.44.01.44.03.46.05.44.08.45.1.46.12.45.14.46.16.45.19.46.2.46.22.46.24.46.26.46.28.46.29.46.31.46.33.46.34.46.35.46.37.46.39.46.39.45.41.46.42.45.43.45.45.45.45.45.47.45.47.12.13.13.13.11.13.13.13.12.14.12.14.12.13.12.13.63.72.62.73.61.74.6.75.6.76.6.77.58.77.58.78.56.78.56.78.54.78.54.77.52.78.51.77.5.76.49.76.47.74.46.73.44.72.44.71.41.69.4.66.38.65.37.63.69 1.19.61 1.08.54.97.45.84.24 1.31.23 1.31.22 1.32.21 1.3.2 1.31.19 1.29.18 1.27.17 1.26.16 1.23.14 1.21.14 1.18.12 1.14.12 1.11.1 1.07.08 1.03.08.98.05.67.09 1.29.11 1.45.12 1.62.11 1.75.12 1.88.12 1.99.12 2.05.1 2.14.05 1.08.04 1.09.05 1.09.03 1.11.04 1.1.02 1.1.02 1.11.02 1.09.01 1.09V76.99l-.01 1.05-.02 1.04-.03 1.02-.03.99-.04.97-.86.03-.88.03-.89.01-.92.01-.93.01h-.94zM87.13 81.21l.04-.81.03-.82.02-.85.01-.87.01-.87.01-.89v-.91l-.01-.92-.01-.94-.02-.94-.02-.96-.02-.97-.04-.98-.03-.99-.04-1-.09-2.03-.09-2.06-.12-2.08-.12-2.1-.14-2.12-.14-2.12-.15-2.13-.15-2.14-.05-.67-.06-.67-.05-.71-.07-.75-.08-.8-.09-.85-.1-.88-.1-.91-.11-.94-.12-.98-.13-1-.13-1.03-.15-1.04-.16-1.07-.16-1.09-.16-1.1-.18-1.11 1.05 2.54 1.2 2.85 1.31 3.1 1.37 3.31.7 1.7.71 1.74.7 1.75.7 1.76.69 1.76.68 1.76.66 1.75.64 1.72.6 1.7.58 1.67.55 1.62.5 1.58.45 1.51.41 1.45.36 1.39.29 1.3.24 1.21.17 1.11.09 1.02.02.9-.06.78-.14.66-.24.53-.32.38-.16.13-.17.12-.18.11-.2.11-.21.12-.23.1-.23.1-.25.1-.26.1-.27.09-.29.09-.3.09-.31.08-.32.08-.33.07-.35.07-.35.08-.37.06-.38.07-.39.06-.4.06-.41.05-.42.05-.43.05-.43.05-.45.05-.46.04-.47.04-.96.06-.99.07.03-.8zM27.07 76.77l-1.4-.29-1.38-.29-1.37-.31-1.35-.32-1.33-.32-1.31-.32-1.28-.34-1.26-.33-1.23-.34-1.19-.35-1.15-.35-1.13-.36-1.08-.36-1.04-.37-1-.36-.94-.37-.9-.38-.86-.38-.79-.38-.74-.39-.68-.38-.62-.39-.54-.39-.49-.39-.42-.4-.35-.39-.28-.4-.19-.4-.13-.39-.04-.39.04-.4.03-.12.04-.14.04-.14L.8 65l.1-.33.13-.34.15-.38.17-.39.19-.43.21-.45.23-.47.24-.49.26-.52.28-.54.3-.56.31-.58.32-.59.34-.62.51.55.53.56.56.56.58.57.6.58.63.57.65.59.66.59.69.6.7.59.72.6.74.61.75.6.77.6.78.6.8.61.8.61.82.61.83.6.84.61.84.6.86.59.86.6.87.59.87.59.88.58.88.59.89.57.88.57.88.56.89.55.89.55-1.41-.29z"/><path class="cls-2" d="M78 94.66l-.84-.03-.88-.05-.92-.08-.96-.1-1-.13-1.03-.14-1.06-.17-1.1-.18-1.13-.21-1.15-.23-1.18-.26-1.21-.27-1.23-.3-1.25-.31-1.28-.34-1.29-.36-1.3-.39-1.32-.4-1.34-.42-1.35-.45-1.36-.46-1.36-.49-1.38-.51-1.37-.53-1.39-.55-1.38-.57-1.38-.59-1.38-.61-1.38-.64-1.38-.65-1.36-.67-.68-.34-.68-.35-.69-.36-.69-.37-.71-.38-.71-.39-.72-.4-.73-.4-.74-.42-.73-.42-.74-.43-.75-.43-.75-.45-.75-.45-.75-.46-.76-.46-.89-.55-.89-.56-.88-.55-.88-.57-.89-.57-.88-.59-.88-.58-.87-.59-.87-.59-.86-.6-.86-.59-.84-.6-.84-.61-.83-.6-.82-.61-.8-.61-.8-.61-.78-.6-.77-.6-.75-.6-.73-.61-.73-.6-.7-.59-.69-.6-.66-.59-.65-.59-.63-.57-.6-.58-.58-.57-.56-.56-.53-.56-.51-.55-.35-.39-.34-.39-.32-.38-.31-.37-.29-.38-.28-.37-.26-.36-.25-.36-.23-.35-.21-.35-.2-.34-.18-.33-.09-.16-.08-.17-.07-.16-.07-.16-.07-.16-.06-.15-.05-.16-.05-.15-.07-.22-.06-.22-.05-.21-.03-.2-.03-.21-.02-.2-.01-.19v-.2l.01-.18.02-.19.03-.18.04-.17.05-.18.05-.16.07-.16.07-.17.22-.39.24-.4.26-.42.29-.42.32-.44.34-.44.36-.44.39-.45.41-.48.44-.47.47-.48.48-.49.52-.5.54-.52.57-.52.59-.52.61-.54.65-.55.67-.56.69-.56.72-.58.75-.59.77-.59.8-.6.83-.62.84-.62.88-.64.91-.65.93-.65.95-.67.99-.67 1.01-.68.64-.46-.22.34-.23.34-.23.34-.23.35-.23.34-.23.36-.23.35-.24.36-.89.61-.86.61-.84.6-.82.59-.79.57-.77.57-.75.57-.72.55-.71.54-.68.54-.65.52-.64.52-.61.51-.59.5-.56.49-.55.48-.52.48-.5.46-.47.46-.46.46-.42.44-.42.43-.39.43-.36.41-.35.41-.32.4-.3.4-.28.39-.26.37-.24.38-.2.36-.2.36-.05.1-.04.11-.04.11-.03.11-.02.12-.01.12-.02.12v.26l.02.13.01.14.02.14.03.15.03.15.05.14.05.16.08.26.12.27.11.27.14.28.16.29.17.29.18.3.19.3.22.31.22.32.24.31.25.33.27.33.28.34.29.34.3.34.52.58.56.58.59.6.62.61.64.62.67.62.71.63.72.65.75.64.78.65.79.66.82.67.83.66.86.67.88.67.89.67.9.67.93.68.93.67.95.67.96.67.97.67.98.66.99.66 1 .66 1 .64 1.01.65 1.01.64 1.01.63 1.02.62 1.01.61 1.02.6.55.33.55.31.55.32.54.31.55.31.54.3.55.31.53.29.54.29.54.3.54.28.53.28.53.28.53.27.52.27.52.27 1.34.65 1.35.64 1.35.62 1.36.6 1.37.59 1.36.55 1.36.55 1.37.52 1.36.5 1.35.48 1.34.46 1.34.44 1.32.42 1.31.4 1.3.38 1.28.35 1.26.34 1.25.32 1.21.29 1.2.28 1.17.25 1.14.23 1.11.21 1.08.19 1.05.16 1.02.15.97.12.94.1.9.08.85.05.81.04.77.01h.36l.36-.01.34-.02.34-.02.31-.02.31-.02.3-.04.28-.05.27-.04.26-.05.24-.06.23-.06.21-.06.21-.07.18-.08.17-.08.15-.08.15-.11.14-.12.13-.15.13-.16.13-.19.12-.2.11-.21.12-.24.1-.25.11-.26.1-.29.09-.3.09-.31.09-.33.08-.34.08-.36.07-.37.08-.39.07-.4.06-.4.06-.43.05-.43.05-.44.06-.46.04-.46.05-.48.04-.49.04-.49.03-.5.03-.52.03-.52.04-.97.04-.99.02-1.02.02-1.04.01-1.05V74.84l-.01-1.09-.02-1.09-.02-1.11-.02-1.1-.04-1.1-.03-1.11-.05-1.09-.04-1.09-.05-1.08-.1-2.14-.12-2.05-.12-1.99-.12-1.88-.11-1.75-.12-1.62-.11-1.45-.09-1.29-.05-.67-.08-.98-.08-1.03-.1-1.07-.12-1.11-.12-1.14-.14-1.18-.14-1.21-.16-1.23-.17-1.26-.18-1.27-.19-1.29-.2-1.31-.21-1.3-.22-1.32-.23-1.31-.24-1.31-.18-.97-.19-.97-.19-.95-.2-.95-.2-.94-.21-.93-.21-.92-.21-.91-.23-.89-.22-.87-.23-.86-.23-.84-.24-.81-.24-.8-.25-.77-.25-.75-.25-.73-.26-.69-.26-.66-.26-.64-.28-.6-.27-.58-.27-.53-.28-.5-.28-.47-.29-.42-.29-.38-.29-.34-.29-.3-.29-.25-.31-.22-.29-.15-.15-.07-.16-.05-.15-.06-.16-.06-.17-.04-.17-.05-.17-.04-.17-.04-.18-.03-.18-.03-.2-.03-.19-.02-.2-.02-.19-.02-.21-.01-.21-.01h-.21l-.22-.01-.22.01h-.23l-.23.01-.23.02-.24.01-.24.03-.25.02-.24.03-.26.03-.26.03-.53.09-.54.09-.12-.13-.12-.13-.12-.14-.12-.14-.13-.13-.11-.13-.13-.13-.12-.13.33-.07.32-.07.32-.06.32-.06.31-.05.31-.04.3-.04.3-.04.29-.03.29-.03.28-.02.28-.02.28-.01.27-.01.26-.01.26.01.26.01.25.01.24.01.24.03.24.02.23.03.23.03.22.05.22.04.21.05.21.06.2.05.2.07.19.07.19.07.18.08.4.21.39.28.39.34.37.4.38.46.36.51.36.56.36.62.35.67.34.7.33.75.33.8.32.83.31.86.31.91.3.93.29.96.28.99.28 1.01.27 1.03.27 1.05.26 1.07.25 1.09.24 1.09.24 1.11.23 1.11.22 1.11.21 1.12.2 1.13.2 1.11.19 1.12.19 1.1.18 1.11.16 1.1.16 1.09.16 1.07.15 1.04.13 1.03.13 1 .12.98.11.94.1.91.1.88.09.85.08.8.07.75.05.71.06.67.05.67.15 2.14.15 2.13.14 2.12.14 2.12.12 2.1.12 2.08.09 2.06.09 2.03.04 1 .03.99.04.98.02.97.02.96.02.94v.94l.02.92v.91l-.01.89-.01.87-.01.87-.02.85-.03.82-.04.81-.03.8-.04.58-.04.59-.04.56-.04.56-.05.54-.06.53-.06.52-.06.5-.07.5-.07.48-.08.46-.08.45-.08.44-.09.42-.09.4-.1.39-.11.38-.11.36-.11.34-.12.33-.13.31-.13.29-.13.28-.15.25-.14.25-.15.21-.16.21-.16.19-.18.16-.17.15-.18.12-.19.1-.2.1-.23.1-.23.08-.25.08-.26.07-.28.07-.29.06-.3.05-.32.05-.33.04-.34.04-.35.03-.38.01-.37.02-.4.01-.4.01-.8-.02z"/><path class="cls-2" d="M56.03 70.62l-.19-.67-.18-.62-.18-.57-.17-.54-.17-.51-.16-.48-.16-.45-.15-.43-.09-.24-.17-.5-.25-.71-.32-.89-.37-1.03-.42-1.15-.43-1.23-.45-1.27-.46-1.28-.45-1.26-.43-1.2-.39-1.1-.35-.97-.29-.81-.22-.62-.13-.38-.13-.36-.15-.44-.17-.49-.18-.54-.19-.58-.21-.6-.21-.61-.21-.61-.2-.6-.2-.59-.19-.54-.17-.51-.15-.45-.14-.38-.1-.31-.08-.21-.08.21-.11.31-.13.38-.16.45-.17.51-.19.54-.2.59-.21.6-.2.61-.21.61-.2.6-.2.58-.19.54-.16.49-.15.44-.13.36-.14.38-.21.62-.29.81-.35.97-.39 1.1-.43 1.2-.45 1.26-.46 1.28-.45 1.27-.44 1.23-.41 1.15-.37 1.03-.32.89-.25.71-.17.5-.09.24-.16.43-.15.45-.17.48-.16.51-.17.54-.18.57-.18.62-.2.67h-3.74l.04-.03.1-.07.16-.14.21-.2.12-.13.14-.14.14-.16.15-.18.16-.2.17-.22.17-.24.18-.26.23-.37.25-.43.26-.49.28-.54.29-.6.31-.65.32-.69.32-.73.34-.77.34-.81.35-.83.35-.85.36-.88.36-.9.36-.91.36-.92.72-1.86.7-1.84.67-1.81.64-1.73.6-1.64.53-1.5.48-1.34.39-1.15.1-.29.09-.29.09-.3.07-.29.07-.29.07-.3.06-.29.06-.29.1-.57.09-.54.07-.51.06-.47h1.11l.02.23.02.24.04.26.04.27.04.27.05.28.04.29.05.3.07.3.06.31.07.31.08.31.08.31.09.32.09.31.1.31.39 1.15.47 1.34.53 1.49.59 1.62.63 1.73.68 1.79.69 1.83.72 1.83.35.91.36.9.36.89.35.87.35.85.36.82.34.79.33.77.33.72.31.69.3.64.3.59.27.55.27.48.24.44.23.36.18.26.18.24.16.22.16.2.16.18.14.16.14.14.12.13.21.2.16.14.1.07.04.03h-3.75z"/><path class="cls-2" d="M53.09 64.15l-.1-.06-.1-.07-.11-.07-.23-.17-.25-.19-.29-.2-.3-.21-.17-.11-.17-.1-.18-.11-.19-.11-.19-.1-.2-.1-.22-.1-.21-.1-.23-.09-.24-.09-.25-.08-.26-.08-.26-.07-.28-.06-.29-.06-.29-.04-.31-.04-.32-.03-.33-.02h-.68l-.33.02-.32.03-.31.04-.29.04-.29.06-.28.06-.27.07-.26.08-.25.08-.24.09-.22.09-.23.1-.21.1-.21.1-.19.1-.19.11-.18.11-.17.1-.17.11-.31.21-.28.2-.26.19-.23.17-.11.07-.1.07-.1.06-.09.06.65-1.85.15-.1.17-.13.2-.15.21-.16.25-.17.28-.18.15-.09.15-.09.16-.09.17-.08.18-.1.19-.08.19-.09.2-.08.21-.07.23-.07.22-.07.24-.07.25-.05.25-.06.26-.04.28-.04.28-.03.29-.02.3-.02h.32v-.07.07h.31l.31.02.29.02.28.03.27.04.26.04.26.06.24.05.24.07.23.07.21.07.21.07.21.08.19.09.18.08.18.1.17.08.16.09.15.09.15.09.27.18.25.17.21.16.2.15.17.13.14.1.67 1.85-.1-.06zM27.88 44.64h-.11l-.12-.01-.12-.01-.11-.01-.12-.02-.11-.02-.1-.03-.11-.03-.11-.03-.1-.04-.11-.04-.1-.05-.1-.05-.1-.06-.09-.05-.1-.07-.1-.06-.09-.07-.09-.08-.09-.08-.09-.08-.08-.09-.09-.09-.08-.1-.08-.1-.08-.1-.08-.11-.08-.11-.07-.11-.08-.12-.06-.12-.08-.13-.12-.23-.1-.22-.11-.23-.09-.24-.09-.24-.08-.25-.06-.25-.07-.25-.06-.26-.05-.27-.03-.26-.04-.28-.03-.28-.01-.28-.02-.29v-.6l.02-.3.02-.31.02-.29.04-.28.05-.29.05-.27.06-.27.08-.27.07-.25.09-.26.1-.25.1-.24.11-.23.12-.23.13-.23.07-.11.07-.11.07-.12.09-.1.07-.11.08-.1.08-.09.08-.09.09-.09.08-.08.08-.08.1-.08.08-.07.09-.07.09-.07.1-.06.09-.05.1-.06.09-.05.1-.05.1-.04.1-.04.11-.04.1-.03.11-.02.1-.03.11-.02.11-.01.11-.02.12-.01H28.06l.11.01.12.01.11.01.1.03.11.03.11.03.1.04.11.04.1.05.1.05.1.06.1.06.1.07.1.07.09.08.12.11.12.12.12.13.1.13.11.14.1.15.1.16.09.16-.43.29-.06-.12-.07-.12-.07-.11-.08-.12-.15-.21-.17-.21-.05-.06-.06-.06-.06-.06-.07-.06-.08-.06-.08-.06-.09-.05-.08-.05-.1-.05-.1-.04-.11-.04-.11-.03-.11-.03-.12-.02-.12-.02-.13-.02h-.13l-.15.01-.13.01-.13.03-.13.03-.13.04-.11.06-.12.07-.11.07-.11.1-.11.1-.1.11-.1.13-.1.15-.1.16-.1.17-.09.19-.09.19-.08.2-.08.2-.07.21-.07.22-.07.22-.05.23-.06.24-.05.24-.03.26-.04.26-.03.27-.03.27-.01.28-.01.28-.01.3.01.28v.27l.02.27.02.27.03.25.03.26.04.25.04.24.05.24.05.24.06.22.06.22.07.22.07.21.07.21.08.19.1.24.09.24.1.22.1.21.1.2.11.19.11.17.11.16.06.08.06.07.07.06.06.07.07.05.07.06.07.04.07.05.08.04.08.03.08.03.08.02.09.02.09.01.1.02h.19l.11-.02.1-.01.1-.01.09-.02.08-.04.1-.03.08-.03.09-.05.07-.05.09-.05.08-.06.08-.07.08-.06.08-.08.08-.08.13-.13.11-.14.11-.14.1-.17.1-.16.1-.18.09-.19.08-.19.51.27-.11.23-.12.22-.06.1-.06.1-.06.1-.07.09-.07.1-.07.09-.08.09-.07.08-.07.09-.09.07-.08.08-.08.07-.11.09-.1.07-.11.08-.1.07-.11.06-.1.06-.11.05-.11.05-.11.04-.11.04-.11.02-.11.02-.12.02-.11.02-.12.01h-.12zM37.09 44.34v-5.26h-4.33v5.25h-.19l-.97-.82V33.12l1.16-.79v6.09h4.33v-6.11l1.17.81v10.2l-1.06 1.02h-.11zM41.16 44.34l-1.08-1.04V33.21l1.17-.89v12.02h-.09zM46.32 38.38l.44-9.74.48 9.74h-.92zM45.58 38.38h2.4v.71h-2.4zM57.95 44.33v-5.25h-4.33v5.25h-.06l-1.11-.76v-10.4l1.17-.79v6.04h4.33V32.3h.08l1.09.75v10.56l-1.06.72h-.11zM62.51 44.34l-1.08-.9V33.28l1.17-.89v7.72l5.06-5.01v-2.8h.12l1.05.72v10.2l-1.17 1.11V36.2l-5.09 5.07-.02 3.07h-.04zM77 44.33V36.2l-4.99 5.01v3.03l-.16.01-1.07-.9V33.21l1.16-.89v7.83L77 35.1v-2.8h.05l1.12.9v10.08l-1.09 1.05H77zM74.47 32.18h-.08l-.09-.01-.09-.02-.08-.03-.08-.03-.07-.04-.08-.05-.07-.05-.06-.06-.05-.06-.05-.07-.05-.06-.04-.09-.03-.07-.03-.08-.02-.09.97-.54.96.64-.03.08-.03.07-.04.07-.04.07-.05.06-.05.06-.06.05-.06.05-.06.04-.07.05-.07.03-.08.03-.07.02-.08.02-.08.01h-.09zM51.89 45.69l-.17-.11-.19-.11-.17-.13-.18-.14-.16-.16-.17-.16-.15-.17-.16-.19-.15-.2-.15-.2-.13-.22-.14-.22-.13-.24-.12-.25-.12-.24-.11-.27-.1-.27-.1-.28-.09-.28-.09-.29-.08-.29-.07-.31-.06-.31-.06-.32-.05-.32-.04-.32-.03-.34-.03-.33-.02-.35v-.94l.01-.25.01-.24.02-.25.03-.24.02-.23.03-.24.04-.23.04-.23.04-.23.05-.22.05-.23.05-.22.06-.21.06-.21.06-.21.07-.2.07-.21.07-.19.08-.2.09-.18.08-.19.08-.18.09-.17.1-.18.09-.16.1-.16.1-.17.1-.14.11-.15.11-.15.11-.13.28.12-.08.14-.08.15-.08.16-.08.15-.07.16-.07.17-.06.17-.06.17-.06.18-.06.18-.05.17-.06.19-.04.19-.04.19-.05.19-.03.19-.07.41-.06.41-.05.41-.05.43-.03.44-.02.45-.02.44v.46l-.01.34.01.32v.33l.01.32.02.32.02.32.03.31.03.3.03.31.05.29.05.29.04.28.06.28.06.27.06.28.08.26.07.25.08.25.09.24.09.23.1.22.1.22.11.21.11.21.12.19.12.18.13.18.13.17.14.15.15.14.14.14.16.13-.19-.09zM41.5 45.65l.15-.14.14-.14.15-.15.13-.17.13-.18.12-.18.12-.19.11-.21.11-.21.1-.22.1-.22.09-.23.09-.24.08-.25.07-.25.07-.26.07-.28.06-.27.05-.28.06-.28.04-.29.05-.29.03-.31.03-.3.03-.31.02-.32.02-.32.01-.32v-.33l.01-.32-.01-.34v-.46l-.02-.44-.02-.45-.04-.44-.04-.43-.05-.41-.05-.41-.08-.41-.04-.19-.04-.19-.04-.19-.05-.19-.04-.19-.06-.17-.06-.18-.06-.18-.06-.17-.06-.17-.07-.17-.07-.16-.08-.15-.08-.16-.08-.15-.09-.14.3-.12.1.13.11.15.11.15.1.14.1.17.1.16.09.16.09.18.1.17.08.18.08.19.09.18.08.2.07.19.07.21.07.2.06.21.06.21.06.21.06.22.05.23.04.22.04.23.04.23.04.23.03.24.02.23.03.24.01.25.02.24.01.25v.6l-.01.34-.02.35-.02.33-.03.34-.04.32-.05.32-.06.32-.06.31-.07.31-.08.29-.09.29-.09.28-.1.28-.1.27-.11.27-.12.24-.12.25-.13.24-.13.22-.15.22-.14.2-.15.2-.16.19-.15.17-.17.16-.17.16-.17.14-.17.13-.19.11-.18.11-.18.09.15-.13zM23.97 70.47l.05-.04.13-.11.09-.07.1-.1.1-.11.11-.12.1-.13.11-.14.05-.07.04-.08.05-.08.04-.09.04-.08.03-.08.03-.09.03-.09.02-.09.01-.09.02-.09V51.48l-.02-.13-.01-.12-.02-.12-.03-.12-.03-.11-.03-.11-.04-.11-.04-.1-.05-.09-.04-.1-.05-.09-.11-.17-.1-.15-.11-.13-.1-.12-.1-.1-.09-.09-.13-.11-.05-.04h12.96l-.89 1.03-.45.54-.42-.03-.33-.03-.24-.02-.17-.01-.12-.01-.08-.01h-6.67v4.68l4.04 1.84.74.42.66.37.29.17.28.16.25.15.24.15.22.16.22.15.2.15.19.17.19.17.18.18.18.19.18.21.15.2.14.2.15.21.14.23.15.24.13.25.14.25.12.25.12.26.1.25.1.25.08.25.07.24.06.24.01.11.02.11.02.11v.1l-1.55 3.09-.03-1.52-.02-.23-.03-.22-.04-.22-.05-.23-.04-.22-.05-.22-.06-.22-.06-.22-.07-.21-.08-.21-.08-.22-.09-.21-.1-.2-.11-.21-.11-.2-.13-.21-.13-.2-.15-.2-.15-.2-.16-.19-.17-.2-.19-.18-.19-.19-.2-.19-.23-.18-.22-.19-.25-.18-.25-.17-.27-.17-.28-.18-.3-.16-.3-.17-3.71-1.79.09 11.95h6.86l-.04.05-.12.16-.19.22-.24.26-.19.19-.19.18-.14.13-.06.05h-9.28zM73.19 70.66l-.21-.01-.2-.01-.2-.01-.2-.02-.2-.03-.2-.03-.2-.04-.19-.04-.2-.05-.18-.06-.19-.06-.19-.07-.18-.07-.18-.08-.18-.08-.18-.09-.17-.1-.18-.1-.16-.11-.17-.11-.16-.12-.15-.13-.16-.13-.15-.14-.15-.14-.14-.15-.14-.15-.14-.16-.13-.16-.13-.18-.12-.18-.13-.18-.11-.19-.11-.19-.11-.2-.11-.2-.1-.2-.09-.21-.1-.21-.09-.22-.09-.22-.08-.23-.08-.23-.07-.23-.07-.24-.07-.24-.07-.24-.06-.25-.06-.25-.05-.26-.05-.26-.05-.26-.04-.28-.04-.27-.03-.27-.03-.29-.03-.28-.02-.29-.02-.3-.02-.29-.01-.3-.02-.31v-1.13l.18-.22.18-.22.18-.25.16-.25.16-.26.16-.27.16-.29.15-.28.13-.31.14-.31.12-.31.12-.33.11-.33.1-.34.09-.35.08-.35.1-.49.09-.42.08-.38.07-.34.06-.34.05-.33.04-.34.04-.37v-.09l.01-.14.02-.09.02-.09.02-.11.03-.12.12-.12.12-.13.13-.11.12-.11.13-.12.13-.1.13-.1.14-.1.12-.09.14-.09.14-.09.14-.08.14-.07.14-.08.15-.07.14-.06.15-.06.15-.06.15-.06.15-.05.16-.04.15-.04.16-.04.16-.04.16-.02.16-.03.17-.02.17-.02.16-.01.17-.02h.61l.27.02.27.03.27.04.27.05.28.06.27.08.27.09.14.05.14.06.14.07.14.06.14.08.14.09.13.09.13.1.13.1.13.11.12.12.12.11.11.12.11.12.1.13.09.13.11.16.11.15.09.15.09.14.16.27.12.24.11.22.08.2.06.18.05.15-.09.04-.1.04-.1.04-.11.06-.1.06-.1.07-.1.09-.1.08-.1.1-.09.09-.09.11-.09.11-.09.11-.08.11-.07.11-.07.12-.15.24-.13.24-.11.23-.1.22-.05-.45-.05-.46-.06-.47-.06-.45-.07-.42-.08-.37-.03-.16-.04-.14-.04-.12-.04-.09-.04-.12-.07-.11-.05-.11-.06-.1-.06-.1-.07-.1-.06-.09-.07-.09-.06-.08-.07-.07-.07-.07-.07-.08-.08-.07-.07-.06-.08-.06-.07-.05-.07-.05-.09-.05-.07-.04-.08-.05-.08-.03-.08-.03-.08-.04-.08-.02-.09-.03-.08-.01-.08-.02-.08-.01-.17-.02-.18-.01h-.09l-.1.01-.09.01-.1.01-.15.03-.14.02-.13.03-.13.03-.12.04-.12.04-.12.05-.11.05-.1.05-.11.05-.1.06-.1.07-.09.06-.1.08-.09.08-.09.08-.09.09-.08.09-.09.1-.09.1-.08.12-.08.11-.08.12-.09.13-.17.27-.16.3-.18.32-.18.35-.18.35-.16.35-.15.37-.15.38-.07.19-.07.2-.06.2-.06.2-.07.21-.05.2-.06.22-.05.21-.05.22-.04.22-.04.23-.03.22-.03.23-.03.23-.03.23-.02.24-.01.24-.01.24-.01.24v.5l.01.26.02.25.01.26.05.47.05.48.06.5.06.49.07.51.08.5.09.5.09.48.1.48.1.46.11.44.11.41.07.2.06.19.06.18.06.17.07.16.06.15.07.15.07.13.09.16.09.16.09.15.1.13.09.14.1.12.09.12.1.11.09.11.1.1.1.1.1.08.1.08.1.08.1.07.1.06.11.07.1.05.1.05.1.05.11.04.1.04.11.03.1.03.11.02.1.03.11.02.1.01.21.02.22.01h.09l.08-.01h.06l.08-.01.15-.04.15-.05.16-.05.15-.06.16-.08.16-.08.15-.09.15-.1.15-.1.15-.11.13-.11.13-.11.12-.12.12-.11.14-.15.14-.16.12-.17.13-.16.11-.18.11-.18.11-.18.11-.17.09-.19.09-.19.08-.19.09-.18.07-.2.08-.18.06-.19.07-.18.05.16.05.15.05.16.05.14.05.16.04.15.05.14.05.14.03.11.05.11.04.1.04.09.05.08.05.08.05.08.05.07.06.06.05.06.06.06.06.05.05.04.06.04.06.04.06.03-.08.16-.08.15-.08.15-.1.16-.09.15-.1.15-.11.15-.1.14-.11.13-.12.13-.12.13-.13.13-.14.13-.15.13-.14.13-.16.12-.15.12-.16.11-.16.11-.16.09-.16.09-.15.09-.15.06-.15.06-.15.05-.14.05-.15.04-.15.04-.14.04-.15.03-.15.04-.15.02-.15.03-.15.01-.14.02-.16.02-.15.01-.15.01-.15.01h-.15z"/><path class="cls-2" d="M59 62.78l1.45-1 .56-.41.44-.33.36-.29.32-.27.3-.27.32-.29.38-.35.46-.42.14-.13.14-.14.13-.18.13-.14.12-.14.12-.14.11-.14.1-.14.1-.15.1-.15.09-.15.13-.15.09-.16.08-.15.08-.16.07-.15.14-.31.13-.32.12-.32.11-.32.1-.31.08-.3.09-.31.09-.31.06-.24.06-.27V50.58H59zm-.22 6l-.2-.29-.2-.29-.2-.32-.18-.31-.23-.41-.27-.48-.31-.56-.64-1.41v-14.2l-.07-.17-.07-.16-.25-.18-.08-.14-.08-.09-.08-.1-.07-.09-.06-.07-.1-.1h13.62l-.08.08-.19.2-.11.12-.1.12-.09.11-.07.09-.06.1v.28l-.07.17-.06.17V52.52l-.06.33-.07.35-.07.38-.09.43-.1.48-.07.31-.08.3-.09.3-.09.3-.09.29-.11.29-.11.27-.12.27-.12.26-.13.25-.13.25-.14.24-.14.24-.14.22-.15.22-.15.21-.15.2-.15.19-.15.19-.16.17-.41.45-.33.35-.28.29-.28.28-.32.29-.41.36-.54.46-.7.6L59 64.8v4.31z"/></svg>